<?xml version="1.0" standalone="no"?>
<!DOCTYPE svg PUBLIC "-//W3C//DTD SVG 1.1//EN" "http://www.w3.org/Graphics/SVG/1.1/DTD/svg11.dtd">
<svg version="1.1" width="1200" height="534" onload="init(evt)" viewBox="0 0 1200 534" xmlns="http://www.w3.org/2000/svg" xmlns:xlink="http://www.w3.org/1999/xlink">
<!-- Flame graph stack visualization. See https://github.com/brendangregg/FlameGraph for latest version, and http://www.brendangregg.com/flamegraphs.html for examples. -->
<!-- NOTES:  -->
<defs>
	<linearGradient id="background" y1="0" y2="1" x1="0" x2="0" >
		<stop stop-color="#eeeeee" offset="5%" />
		<stop stop-color="#eeeeb0" offset="95%" />
	</linearGradient>
</defs>
<style type="text/css">
	text { font-family:Verdana; font-size:12px; fill:rgb(0,0,0); }
	#search, #ignorecase { opacity:0.1; cursor:pointer; }
	#search:hover, #search.show, #ignorecase:hover, #ignorecase.show { opacity:1; }
	#subtitle { text-anchor:middle; font-color:rgb(160,160,160); }
	#title { text-anchor:middle; font-size:17px}
	#unzoom { cursor:pointer; }
	#frames > *:hover { stroke:black; stroke-width:0.5; cursor:pointer; }
	.hide { display:none; }
	.parent { opacity:0.5; }
</style>
<script type="text/ecmascript">
<![CDATA[
	"use strict";
	var details, searchbtn, unzoombtn, matchedtxt, svg, searching, currentSearchTerm, ignorecase, ignorecaseBtn;
	function init(evt) {
		details = document.getElementById("details").firstChild;
		searchbtn = document.getElementById("search");
		ignorecaseBtn = document.getElementById("ignorecase");
		unzoombtn = document.getElementById("unzoom");
		matchedtxt = document.getElementById("matched");
		svg = document.getElementsByTagName("svg")[0];
		searching = 0;
		currentSearchTerm = null;

		// use GET parameters to restore a flamegraphs state.
		var params = get_params();
		if (params.x && params.y)
			zoom(find_group(document.querySelector('[x="' + params.x + '"][y="' + params.y + '"]')));
                if (params.s) search(params.s);
	}

	// event listeners
	window.addEventListener("click", function(e) {
		var target = find_group(e.target);
		if (target) {
			if (target.nodeName == "a") {
				if (e.ctrlKey === false) return;
				e.preventDefault();
			}
			if (target.classList.contains("parent")) unzoom(true);
			zoom(target);
			if (!document.querySelector('.parent')) {
				// we have basically done a clearzoom so clear the url
				var params = get_params();
				if (params.x) delete params.x;
				if (params.y) delete params.y;
				history.replaceState(null, null, parse_params(params));
				unzoombtn.classList.add("hide");
				return;
			}

			// set parameters for zoom state
			var el = target.querySelector("rect");
			if (el && el.attributes && el.attributes.y && el.attributes._orig_x) {
				var params = get_params()
				params.x = el.attributes._orig_x.value;
				params.y = el.attributes.y.value;
				history.replaceState(null, null, parse_params(params));
			}
		}
		else if (e.target.id == "unzoom") clearzoom();
		else if (e.target.id == "search") search_prompt();
		else if (e.target.id == "ignorecase") toggle_ignorecase();
	}, false)

	// mouse-over for info
	// show
	window.addEventListener("mouseover", function(e) {
		var target = find_group(e.target);
		if (target) details.nodeValue = "Function: " + g_to_text(target);
	}, false)

	// clear
	window.addEventListener("mouseout", function(e) {
		var target = find_group(e.target);
		if (target) details.nodeValue = ' ';
	}, false)

	// ctrl-F for search
	// ctrl-I to toggle case-sensitive search
	window.addEventListener("keydown",function (e) {
		if (e.keyCode === 114 || (e.ctrlKey && e.keyCode === 70)) {
			e.preventDefault();
			search_prompt();
		}
		else if (e.ctrlKey && e.keyCode === 73) {
			e.preventDefault();
			toggle_ignorecase();
		}
	}, false)

	// functions
	function get_params() {
		var params = {};
		var paramsarr = window.location.search.substr(1).split('&');
		for (var i = 0; i < paramsarr.length; ++i) {
			var tmp = paramsarr[i].split("=");
			if (!tmp[0] || !tmp[1]) continue;
			params[tmp[0]]  = decodeURIComponent(tmp[1]);
		}
		return params;
	}
	function parse_params(params) {
		var uri = "?";
		for (var key in params) {
			uri += key + '=' + encodeURIComponent(params[key]) + '&';
		}
		if (uri.slice(-1) == "&")
			uri = uri.substring(0, uri.length - 1);
		if (uri == '?')
			uri = window.location.href.split('?')[0];
		return uri;
	}
	function find_child(node, selector) {
		var children = node.querySelectorAll(selector);
		if (children.length) return children[0];
	}
	function find_group(node) {
		var parent = node.parentElement;
		if (!parent) return;
		if (parent.id == "frames") return node;
		return find_group(parent);
	}
	function orig_save(e, attr, val) {
		if (e.attributes["_orig_" + attr] != undefined) return;
		if (e.attributes[attr] == undefined) return;
		if (val == undefined) val = e.attributes[attr].value;
		e.setAttribute("_orig_" + attr, val);
	}
	function orig_load(e, attr) {
		if (e.attributes["_orig_"+attr] == undefined) return;
		e.attributes[attr].value = e.attributes["_orig_" + attr].value;
		e.removeAttribute("_orig_"+attr);
	}
	function g_to_text(e) {
		var text = find_child(e, "title").firstChild.nodeValue;
		return (text)
	}
	function g_to_func(e) {
		var func = g_to_text(e);
		// if there's any manipulation we want to do to the function
		// name before it's searched, do it here before returning.
		return (func);
	}
	function update_text(e) {
		var r = find_child(e, "rect");
		var t = find_child(e, "text");
		var w = parseFloat(r.attributes.width.value) -3;
		var txt = find_child(e, "title").textContent.replace(/\([^(]*\)$/,"");
		t.attributes.x.value = parseFloat(r.attributes.x.value) + 3;

		// Smaller than this size won't fit anything
		if (w < 2 * 12 * 0.59) {
			t.textContent = "";
			return;
		}

		t.textContent = txt;
		var sl = t.getSubStringLength(0, txt.length);
		// check if only whitespace or if we can fit the entire string into width w
		if (/^ *$/.test(txt) || sl < w)
			return;

		// this isn't perfect, but gives a good starting point
		// and avoids calling getSubStringLength too often
		var start = Math.floor((w/sl) * txt.length);
		for (var x = start; x > 0; x = x-2) {
			if (t.getSubStringLength(0, x + 2) <= w) {
				t.textContent = txt.substring(0, x) + "..";
				return;
			}
		}
		t.textContent = "";
	}

	// zoom
	function zoom_reset(e) {
		if (e.attributes != undefined) {
			orig_load(e, "x");
			orig_load(e, "width");
		}
		if (e.childNodes == undefined) return;
		for (var i = 0, c = e.childNodes; i < c.length; i++) {
			zoom_reset(c[i]);
		}
	}
	function zoom_child(e, x, ratio) {
		if (e.attributes != undefined) {
			if (e.attributes.x != undefined) {
				orig_save(e, "x");
				e.attributes.x.value = (parseFloat(e.attributes.x.value) - x - 10) * ratio + 10;
				if (e.tagName == "text")
					e.attributes.x.value = find_child(e.parentNode, "rect[x]").attributes.x.value + 3;
			}
			if (e.attributes.width != undefined) {
				orig_save(e, "width");
				e.attributes.width.value = parseFloat(e.attributes.width.value) * ratio;
			}
		}

		if (e.childNodes == undefined) return;
		for (var i = 0, c = e.childNodes; i < c.length; i++) {
			zoom_child(c[i], x - 10, ratio);
		}
	}
	function zoom_parent(e) {
		if (e.attributes) {
			if (e.attributes.x != undefined) {
				orig_save(e, "x");
				e.attributes.x.value = 10;
			}
			if (e.attributes.width != undefined) {
				orig_save(e, "width");
				e.attributes.width.value = parseInt(svg.width.baseVal.value) - (10 * 2);
			}
		}
		if (e.childNodes == undefined) return;
		for (var i = 0, c = e.childNodes; i < c.length; i++) {
			zoom_parent(c[i]);
		}
	}
	function zoom(node) {
		var attr = find_child(node, "rect").attributes;
		var width = parseFloat(attr.width.value);
		var xmin = parseFloat(attr.x.value);
		var xmax = parseFloat(xmin + width);
		var ymin = parseFloat(attr.y.value);
		var ratio = (svg.width.baseVal.value - 2 * 10) / width;

		// XXX: Workaround for JavaScript float issues (fix me)
		var fudge = 0.0001;

		unzoombtn.classList.remove("hide");

		var el = document.getElementById("frames").children;
		for (var i = 0; i < el.length; i++) {
			var e = el[i];
			var a = find_child(e, "rect").attributes;
			var ex = parseFloat(a.x.value);
			var ew = parseFloat(a.width.value);
			var upstack;
			// Is it an ancestor
			if (0 == 0) {
				upstack = parseFloat(a.y.value) > ymin;
			} else {
				upstack = parseFloat(a.y.value) < ymin;
			}
			if (upstack) {
				// Direct ancestor
				if (ex <= xmin && (ex+ew+fudge) >= xmax) {
					e.classList.add("parent");
					zoom_parent(e);
					update_text(e);
				}
				// not in current path
				else
					e.classList.add("hide");
			}
			// Children maybe
			else {
				// no common path
				if (ex < xmin || ex + fudge >= xmax) {
					e.classList.add("hide");
				}
				else {
					zoom_child(e, xmin, ratio);
					update_text(e);
				}
			}
		}
		search();
	}
	function unzoom(dont_update_text) {
		unzoombtn.classList.add("hide");
		var el = document.getElementById("frames").children;
		for(var i = 0; i < el.length; i++) {
			el[i].classList.remove("parent");
			el[i].classList.remove("hide");
			zoom_reset(el[i]);
			if(!dont_update_text) update_text(el[i]);
		}
		search();
	}
	function clearzoom() {
		unzoom();

		// remove zoom state
		var params = get_params();
		if (params.x) delete params.x;
		if (params.y) delete params.y;
		history.replaceState(null, null, parse_params(params));
	}

	// search
	function toggle_ignorecase() {
		ignorecase = !ignorecase;
		if (ignorecase) {
			ignorecaseBtn.classList.add("show");
		} else {
			ignorecaseBtn.classList.remove("show");
		}
		reset_search();
		search();
	}
	function reset_search() {
		var el = document.querySelectorAll("#frames rect");
		for (var i = 0; i < el.length; i++) {
			orig_load(el[i], "fill")
		}
		var params = get_params();
		delete params.s;
		history.replaceState(null, null, parse_params(params));
	}
	function search_prompt() {
		if (!searching) {
			var term = prompt("Enter a search term (regexp " +
			    "allowed, eg: ^ext4_)"
			    + (ignorecase ? ", ignoring case" : "")
			    + "\nPress Ctrl-i to toggle case sensitivity", "");
			if (term != null) search(term);
		} else {
			reset_search();
			searching = 0;
			currentSearchTerm = null;
			searchbtn.classList.remove("show");
			searchbtn.firstChild.nodeValue = "Search"
			matchedtxt.classList.add("hide");
			matchedtxt.firstChild.nodeValue = ""
		}
	}
	function search(term) {
		if (term) currentSearchTerm = term;
		if (currentSearchTerm === null) return;

		var re = new RegExp(currentSearchTerm, ignorecase ? 'i' : '');
		var el = document.getElementById("frames").children;
		var matches = new Object();
		var maxwidth = 0;
		for (var i = 0; i < el.length; i++) {
			var e = el[i];
			var func = g_to_func(e);
			var rect = find_child(e, "rect");
			if (func == null || rect == null)
				continue;

			// Save max width. Only works as we have a root frame
			var w = parseFloat(rect.attributes.width.value);
			if (w > maxwidth)
				maxwidth = w;

			if (func.match(re)) {
				// highlight
				var x = parseFloat(rect.attributes.x.value);
				orig_save(rect, "fill");
				rect.attributes.fill.value = "rgb(230,0,230)";

				// remember matches
				if (matches[x] == undefined) {
					matches[x] = w;
				} else {
					if (w > matches[x]) {
						// overwrite with parent
						matches[x] = w;
					}
				}
				searching = 1;
			}
		}
		if (!searching)
			return;
		var params = get_params();
		params.s = currentSearchTerm;
		history.replaceState(null, null, parse_params(params));

		searchbtn.classList.add("show");
		searchbtn.firstChild.nodeValue = "Reset Search";

		// calculate percent matched, excluding vertical overlap
		var count = 0;
		var lastx = -1;
		var lastw = 0;
		var keys = Array();
		for (k in matches) {
			if (matches.hasOwnProperty(k))
				keys.push(k);
		}
		// sort the matched frames by their x location
		// ascending, then width descending
		keys.sort(function(a, b){
			return a - b;
		});
		// Step through frames saving only the biggest bottom-up frames
		// thanks to the sort order. This relies on the tree property
		// where children are always smaller than their parents.
		var fudge = 0.0001;	// JavaScript floating point
		for (var k in keys) {
			var x = parseFloat(keys[k]);
			var w = matches[keys[k]];
			if (x >= lastx + lastw - fudge) {
				count += w;
				lastx = x;
				lastw = w;
			}
		}
		// display matched percent
		matchedtxt.classList.remove("hide");
		var pct = 100 * count / maxwidth;
		if (pct != 100) pct = pct.toFixed(1)
		matchedtxt.firstChild.nodeValue = "Matched: " + pct + "%";
	}
]]>
</script>
<rect x="0.0" y="0" width="1200.0" height="534.0" fill="url(#background)"  />
<text id="title" x="600.00" y="24" >Flame Graph</text>
<text id="details" x="10.00" y="517" > </text>
<text id="unzoom" x="10.00" y="24" class="hide">Reset Zoom</text>
<text id="search" x="1090.00" y="24" >Search</text>
<text id="ignorecase" x="1174.00" y="24" >ic</text>
<text id="matched" x="1090.00" y="517" > </text>
<g id="frames">
<g >
<title>folios_put_refs (103,404,714 samples, 0.07%)</title><rect x="1188.9" y="69" width="0.8" height="15.0" fill="rgb(254,229,54)" rx="2" ry="2" />
<text  x="1191.86" y="79.5" ></text>
</g>
<g >
<title>__d_lookup (31,143,255 samples, 0.02%)</title><rect x="1189.7" y="197" width="0.3" height="15.0" fill="rgb(224,88,21)" rx="2" ry="2" />
<text  x="1192.74" y="207.5" ></text>
</g>
<g >
<title>__mem_cgroup_charge (31,013,972 samples, 0.02%)</title><rect x="1176.8" y="213" width="0.2" height="15.0" fill="rgb(218,60,14)" rx="2" ry="2" />
<text  x="1179.79" y="223.5" ></text>
</g>
<g >
<title>all (143,831,530,811 samples, 100%)</title><rect x="10.0" y="485" width="1180.0" height="15.0" fill="rgb(213,39,9)" rx="2" ry="2" />
<text  x="13.00" y="495.5" ></text>
</g>
<g >
<title>[stress-ng] (31,154,788 samples, 0.02%)</title><rect x="1189.7" y="389" width="0.3" height="15.0" fill="rgb(241,167,40)" rx="2" ry="2" />
<text  x="1192.74" y="399.5" ></text>
</g>
<g >
<title>__vm_munmap (154,868,315 samples, 0.11%)</title><rect x="1188.4" y="245" width="1.3" height="15.0" fill="rgb(231,121,28)" rx="2" ry="2" />
<text  x="1191.44" y="255.5" ></text>
</g>
<g >
<title>__tlb_batch_free_encoded_pages (103,404,714 samples, 0.07%)</title><rect x="1188.9" y="101" width="0.8" height="15.0" fill="rgb(205,3,0)" rx="2" ry="2" />
<text  x="1191.86" y="111.5" ></text>
</g>
<g >
<title>hv_ce_set_next_event (51,022,229 samples, 0.04%)</title><rect x="1185.6" y="197" width="0.4" height="15.0" fill="rgb(223,84,20)" rx="2" ry="2" />
<text  x="1188.58" y="207.5" ></text>
</g>
<g >
<title>[stress-ng] (31,154,788 samples, 0.02%)</title><rect x="1189.7" y="405" width="0.3" height="15.0" fill="rgb(241,167,40)" rx="2" ry="2" />
<text  x="1192.74" y="415.5" ></text>
</g>
<g >
<title>do_vmi_munmap (154,868,315 samples, 0.11%)</title><rect x="1188.4" y="229" width="1.3" height="15.0" fill="rgb(253,223,53)" rx="2" ry="2" />
<text  x="1191.44" y="239.5" ></text>
</g>
<g >
<title>__page_cache_release.part.0 (103,404,714 samples, 0.07%)</title><rect x="1188.9" y="53" width="0.8" height="15.0" fill="rgb(209,21,5)" rx="2" ry="2" />
<text  x="1191.86" y="63.5" ></text>
</g>
<g >
<title>asm_exc_page_fault (727,732,189 samples, 0.51%)</title><rect x="1173.3" y="309" width="6.0" height="15.0" fill="rgb(225,93,22)" rx="2" ry="2" />
<text  x="1176.31" y="319.5" ></text>
</g>
<g >
<title>task_tick_fair (96,807,780 samples, 0.07%)</title><rect x="1184.4" y="165" width="0.8" height="15.0" fill="rgb(217,57,13)" rx="2" ry="2" />
<text  x="1187.37" y="175.5" ></text>
</g>
<g >
<title>hv_stimer0_isr (810,584,711 samples, 0.56%)</title><rect x="1180.0" y="261" width="6.6" height="15.0" fill="rgb(220,72,17)" rx="2" ry="2" />
<text  x="1182.99" y="271.5" ></text>
</g>
<g >
<title>x86_pmu_disable_all (52,278,301 samples, 0.04%)</title><rect x="1183.1" y="101" width="0.4" height="15.0" fill="rgb(254,227,54)" rx="2" ry="2" />
<text  x="1186.10" y="111.5" ></text>
</g>
<g >
<title>raw_notifier_call_chain (135,017,360 samples, 0.09%)</title><rect x="1180.4" y="133" width="1.1" height="15.0" fill="rgb(221,73,17)" rx="2" ry="2" />
<text  x="1183.35" y="143.5" ></text>
</g>
<g >
<title>x64_sys_call (154,868,315 samples, 0.11%)</title><rect x="1188.4" y="277" width="1.3" height="15.0" fill="rgb(247,194,46)" rx="2" ry="2" />
<text  x="1191.44" y="287.5" ></text>
</g>
<g >
<title>native_read_msr (52,278,301 samples, 0.04%)</title><rect x="1183.1" y="85" width="0.4" height="15.0" fill="rgb(211,30,7)" rx="2" ry="2" />
<text  x="1186.10" y="95.5" ></text>
</g>
<g >
<title>timekeeping_update_from_shadow.constprop.0 (135,017,360 samples, 0.09%)</title><rect x="1180.4" y="149" width="1.1" height="15.0" fill="rgb(206,8,2)" rx="2" ry="2" />
<text  x="1183.35" y="159.5" ></text>
</g>
<g >
<title>__list_del_entry_valid_or_report (51,164,724 samples, 0.04%)</title><rect x="1188.9" y="37" width="0.4" height="15.0" fill="rgb(243,176,42)" rx="2" ry="2" />
<text  x="1191.86" y="47.5" ></text>
</g>
<g >
<title>amd_pmu_disable_all (52,278,301 samples, 0.04%)</title><rect x="1183.1" y="117" width="0.4" height="15.0" fill="rgb(213,38,9)" rx="2" ry="2" />
<text  x="1186.10" y="127.5" ></text>
</g>
<g >
<title>vms_clear_ptes.part.0 (154,868,315 samples, 0.11%)</title><rect x="1188.4" y="181" width="1.3" height="15.0" fill="rgb(215,49,11)" rx="2" ry="2" />
<text  x="1191.44" y="191.5" ></text>
</g>
<g >
<title>cpuacct_charge (44,597,795 samples, 0.03%)</title><rect x="1184.8" y="117" width="0.4" height="15.0" fill="rgb(233,132,31)" rx="2" ry="2" />
<text  x="1187.79" y="127.5" ></text>
</g>
<g >
<title>__hrtimer_run_queues (586,256,428 samples, 0.41%)</title><rect x="1180.4" y="229" width="4.8" height="15.0" fill="rgb(237,150,35)" rx="2" ry="2" />
<text  x="1183.35" y="239.5" ></text>
</g>
<g >
<title>free_pages_and_swap_cache (103,404,714 samples, 0.07%)</title><rect x="1188.9" y="85" width="0.8" height="15.0" fill="rgb(222,82,19)" rx="2" ry="2" />
<text  x="1191.86" y="95.5" ></text>
</g>
<g >
<title>tick_do_update_jiffies64 (135,017,360 samples, 0.09%)</title><rect x="1180.4" y="197" width="1.1" height="15.0" fill="rgb(208,14,3)" rx="2" ry="2" />
<text  x="1183.35" y="207.5" ></text>
</g>
<g >
<title>[libc.so.6] (31,154,788 samples, 0.02%)</title><rect x="1189.7" y="421" width="0.3" height="15.0" fill="rgb(223,84,20)" rx="2" ry="2" />
<text  x="1192.74" y="431.5" ></text>
</g>
<g >
<title>[stress-ng] (31,143,255 samples, 0.02%)</title><rect x="1189.7" y="373" width="0.3" height="15.0" fill="rgb(241,167,40)" rx="2" ry="2" />
<text  x="1192.74" y="383.5" ></text>
</g>
<g >
<title>tick_program_event (91,807,790 samples, 0.06%)</title><rect x="1185.6" y="229" width="0.7" height="15.0" fill="rgb(241,166,39)" rx="2" ry="2" />
<text  x="1188.58" y="239.5" ></text>
</g>
<g >
<title>[stress-ng] (143,800,109,391 samples, 99.98%)</title><rect x="10.0" y="405" width="1179.7" height="15.0" fill="rgb(241,167,40)" rx="2" ry="2" />
<text  x="13.00" y="415.5" >[stress-ng]</text>
</g>
<g >
<title>stress-ng-vm (143,800,109,391 samples, 99.98%)</title><rect x="10.0" y="469" width="1179.7" height="15.0" fill="rgb(222,82,19)" rx="2" ry="2" />
<text  x="13.00" y="479.5" >stress-ng-vm</text>
</g>
<g >
<title>__timekeeping_advance.constprop.0 (135,017,360 samples, 0.09%)</title><rect x="1180.4" y="165" width="1.1" height="15.0" fill="rgb(236,143,34)" rx="2" ry="2" />
<text  x="1183.35" y="175.5" ></text>
</g>
<g >
<title>__alloc_frozen_pages_noprof (180,206,929 samples, 0.13%)</title><rect x="1177.2" y="181" width="1.5" height="15.0" fill="rgb(228,109,26)" rx="2" ry="2" />
<text  x="1180.24" y="191.5" ></text>
</g>
<g >
<title>__munmap (154,868,315 samples, 0.11%)</title><rect x="1188.4" y="325" width="1.3" height="15.0" fill="rgb(211,29,7)" rx="2" ry="2" />
<text  x="1191.44" y="335.5" ></text>
</g>
<g >
<title>func_ptr_is_kernel_text (40,278,536 samples, 0.03%)</title><rect x="1181.1" y="101" width="0.4" height="15.0" fill="rgb(246,190,45)" rx="2" ry="2" />
<text  x="1184.13" y="111.5" ></text>
</g>
<g >
<title>sched_tick (399,543,033 samples, 0.28%)</title><rect x="1181.9" y="181" width="3.3" height="15.0" fill="rgb(238,155,37)" rx="2" ry="2" />
<text  x="1184.88" y="191.5" ></text>
</g>
<g >
<title>smp_call_function_single_async (52,324,901 samples, 0.04%)</title><rect x="1183.9" y="149" width="0.5" height="15.0" fill="rgb(208,14,3)" rx="2" ry="2" />
<text  x="1186.94" y="159.5" ></text>
</g>
<g >
<title>lock_vma_under_rcu (44,418,102 samples, 0.03%)</title><rect x="1178.9" y="261" width="0.4" height="15.0" fill="rgb(251,211,50)" rx="2" ry="2" />
<text  x="1181.92" y="271.5" ></text>
</g>
<g >
<title>update_wall_time (135,017,360 samples, 0.09%)</title><rect x="1180.4" y="181" width="1.1" height="15.0" fill="rgb(207,11,2)" rx="2" ry="2" />
<text  x="1183.35" y="191.5" ></text>
</g>
<g >
<title>x86_pmu_disable (52,278,301 samples, 0.04%)</title><rect x="1183.1" y="133" width="0.4" height="15.0" fill="rgb(239,160,38)" rx="2" ry="2" />
<text  x="1186.10" y="143.5" ></text>
</g>
<g >
<title>unmap_page_range (154,868,315 samples, 0.11%)</title><rect x="1188.4" y="133" width="1.3" height="15.0" fill="rgb(206,5,1)" rx="2" ry="2" />
<text  x="1191.44" y="143.5" ></text>
</g>
<g >
<title>[stress-ng] (143,799,940,616 samples, 99.98%)</title><rect x="10.0" y="341" width="1179.7" height="15.0" fill="rgb(241,167,40)" rx="2" ry="2" />
<text  x="13.00" y="351.5" >[stress-ng]</text>
</g>
<g >
<title>tick_nohz_handler (586,256,428 samples, 0.41%)</title><rect x="1180.4" y="213" width="4.8" height="15.0" fill="rgb(248,200,48)" rx="2" ry="2" />
<text  x="1183.35" y="223.5" ></text>
</g>
<g >
<title>unmap_vmas (154,868,315 samples, 0.11%)</title><rect x="1188.4" y="165" width="1.3" height="15.0" fill="rgb(243,176,42)" rx="2" ry="2" />
<text  x="1191.44" y="175.5" ></text>
</g>
<g >
<title>entry_SYSCALL_64_after_hwframe (154,868,315 samples, 0.11%)</title><rect x="1188.4" y="309" width="1.3" height="15.0" fill="rgb(218,63,15)" rx="2" ry="2" />
<text  x="1191.44" y="319.5" ></text>
</g>
<g >
<title>try_charge_memcg (31,013,972 samples, 0.02%)</title><rect x="1176.8" y="197" width="0.2" height="15.0" fill="rgb(210,27,6)" rx="2" ry="2" />
<text  x="1179.79" y="207.5" ></text>
</g>
<g >
<title>__libc_start_main (31,154,788 samples, 0.02%)</title><rect x="1189.7" y="437" width="0.3" height="15.0" fill="rgb(236,142,34)" rx="2" ry="2" />
<text  x="1192.74" y="447.5" ></text>
</g>
<g >
<title>exc_page_fault (565,800,696 samples, 0.39%)</title><rect x="1174.6" y="293" width="4.7" height="15.0" fill="rgb(212,35,8)" rx="2" ry="2" />
<text  x="1177.64" y="303.5" ></text>
</g>
<g >
<title>do_vmi_align_munmap (154,868,315 samples, 0.11%)</title><rect x="1188.4" y="213" width="1.3" height="15.0" fill="rgb(211,29,7)" rx="2" ry="2" />
<text  x="1191.44" y="223.5" ></text>
</g>
<g >
<title>[libc.so.6] (143,800,109,391 samples, 99.98%)</title><rect x="10.0" y="421" width="1179.7" height="15.0" fill="rgb(223,84,20)" rx="2" ry="2" />
<text  x="13.00" y="431.5" >[libc.so.6]</text>
</g>
<g >
<title>entry_SYSCALL_64_after_hwframe (31,143,255 samples, 0.02%)</title><rect x="1189.7" y="325" width="0.3" height="15.0" fill="rgb(218,63,15)" rx="2" ry="2" />
<text  x="1192.74" y="335.5" ></text>
</g>
<g >
<title>[stress-ng] (143,800,109,391 samples, 99.98%)</title><rect x="10.0" y="373" width="1179.7" height="15.0" fill="rgb(241,167,40)" rx="2" ry="2" />
<text  x="13.00" y="383.5" >[stress-ng]</text>
</g>
<g >
<title>__rcu_read_unlock (24,712,740 samples, 0.02%)</title><rect x="1175.6" y="261" width="0.2" height="15.0" fill="rgb(253,224,53)" rx="2" ry="2" />
<text  x="1178.55" y="271.5" ></text>
</g>
<g >
<title>open64 (31,143,255 samples, 0.02%)</title><rect x="1189.7" y="341" width="0.3" height="15.0" fill="rgb(225,92,22)" rx="2" ry="2" />
<text  x="1192.74" y="351.5" ></text>
</g>
<g >
<title>vma_alloc_folio_noprof (204,816,323 samples, 0.14%)</title><rect x="1177.2" y="213" width="1.7" height="15.0" fill="rgb(218,61,14)" rx="2" ry="2" />
<text  x="1180.24" y="223.5" ></text>
</g>
<g >
<title>path_openat (31,143,255 samples, 0.02%)</title><rect x="1189.7" y="229" width="0.3" height="15.0" fill="rgb(249,202,48)" rx="2" ry="2" />
<text  x="1192.74" y="239.5" ></text>
</g>
<g >
<title>blk_cgroup_congested (23,083,636 samples, 0.02%)</title><rect x="1176.6" y="197" width="0.2" height="15.0" fill="rgb(250,211,50)" rx="2" ry="2" />
<text  x="1179.60" y="207.5" ></text>
</g>
<g >
<title>lookup_fast (31,143,255 samples, 0.02%)</title><rect x="1189.7" y="213" width="0.3" height="15.0" fill="rgb(219,68,16)" rx="2" ry="2" />
<text  x="1192.74" y="223.5" ></text>
</g>
<g >
<title>[stress-ng] (31,143,255 samples, 0.02%)</title><rect x="1189.7" y="357" width="0.3" height="15.0" fill="rgb(241,167,40)" rx="2" ry="2" />
<text  x="1192.74" y="367.5" ></text>
</g>
<g >
<title>do_user_addr_fault (454,821,290 samples, 0.32%)</title><rect x="1175.6" y="277" width="3.7" height="15.0" fill="rgb(228,108,25)" rx="2" ry="2" />
<text  x="1178.55" y="287.5" ></text>
</g>
<g >
<title>asm_sysvec_hyperv_stimer0 (1,000,804,237 samples, 0.70%)</title><rect x="1179.3" y="309" width="8.2" height="15.0" fill="rgb(225,94,22)" rx="2" ry="2" />
<text  x="1182.28" y="319.5" ></text>
</g>
<g >
<title>notifier_call_chain (82,564,968 samples, 0.06%)</title><rect x="1180.8" y="117" width="0.7" height="15.0" fill="rgb(216,52,12)" rx="2" ry="2" />
<text  x="1183.78" y="127.5" ></text>
</g>
<g >
<title>[stress-ng] (143,641,326,166 samples, 99.87%)</title><rect x="10.0" y="325" width="1178.4" height="15.0" fill="rgb(241,167,40)" rx="2" ry="2" />
<text  x="13.00" y="335.5" >[stress-ng]</text>
</g>
<g >
<title>[stress-ng] (143,800,109,391 samples, 99.98%)</title><rect x="10.0" y="453" width="1179.7" height="15.0" fill="rgb(241,167,40)" rx="2" ry="2" />
<text  x="13.00" y="463.5" >[stress-ng]</text>
</g>
<g >
<title>__libc_start_main (143,800,109,391 samples, 99.98%)</title><rect x="10.0" y="437" width="1179.7" height="15.0" fill="rgb(236,142,34)" rx="2" ry="2" />
<text  x="13.00" y="447.5" >__libc_start_main</text>
</g>
<g >
<title>do_filp_open (31,143,255 samples, 0.02%)</title><rect x="1189.7" y="245" width="0.3" height="15.0" fill="rgb(211,28,6)" rx="2" ry="2" />
<text  x="1192.74" y="255.5" ></text>
</g>
<g >
<title>perf_event_task_tick (200,288,443 samples, 0.14%)</title><rect x="1181.9" y="165" width="1.6" height="15.0" fill="rgb(205,3,0)" rx="2" ry="2" />
<text  x="1184.88" y="175.5" ></text>
</g>
<g >
<title>vms_complete_munmap_vmas (154,868,315 samples, 0.11%)</title><rect x="1188.4" y="197" width="1.3" height="15.0" fill="rgb(216,52,12)" rx="2" ry="2" />
<text  x="1191.44" y="207.5" ></text>
</g>
<g >
<title>stress-ng (31,419,925 samples, 0.02%)</title><rect x="1189.7" y="469" width="0.3" height="15.0" fill="rgb(230,115,27)" rx="2" ry="2" />
<text  x="1192.74" y="479.5" ></text>
</g>
<g >
<title>tlb_flush_mmu (103,404,714 samples, 0.07%)</title><rect x="1188.9" y="117" width="0.8" height="15.0" fill="rgb(214,45,10)" rx="2" ry="2" />
<text  x="1191.86" y="127.5" ></text>
</g>
<g >
<title>get_vma_policy (24,609,394 samples, 0.02%)</title><rect x="1178.7" y="197" width="0.2" height="15.0" fill="rgb(238,153,36)" rx="2" ry="2" />
<text  x="1181.72" y="207.5" ></text>
</g>
<g >
<title>do_syscall_64 (31,143,255 samples, 0.02%)</title><rect x="1189.7" y="309" width="0.3" height="15.0" fill="rgb(209,20,4)" rx="2" ry="2" />
<text  x="1192.74" y="319.5" ></text>
</g>
<g >
<title>sched_balance_trigger (102,446,810 samples, 0.07%)</title><rect x="1183.5" y="165" width="0.9" height="15.0" fill="rgb(213,38,9)" rx="2" ry="2" />
<text  x="1186.53" y="175.5" ></text>
</g>
<g >
<title>perf_adjust_freq_unthr_context (200,288,443 samples, 0.14%)</title><rect x="1181.9" y="149" width="1.6" height="15.0" fill="rgb(236,146,35)" rx="2" ry="2" />
<text  x="1184.88" y="159.5" ></text>
</g>
<g >
<title>error_entry (29,903,914 samples, 0.02%)</title><rect x="1187.5" y="309" width="0.2" height="15.0" fill="rgb(240,163,39)" rx="2" ry="2" />
<text  x="1190.50" y="319.5" ></text>
</g>
<g >
<title>is_module_text_address (40,278,536 samples, 0.03%)</title><rect x="1181.1" y="85" width="0.4" height="15.0" fill="rgb(208,16,4)" rx="2" ry="2" />
<text  x="1184.13" y="95.5" ></text>
</g>
<g >
<title>hrtimer_update_next_event (51,791,792 samples, 0.04%)</title><rect x="1185.2" y="229" width="0.4" height="15.0" fill="rgb(225,92,22)" rx="2" ry="2" />
<text  x="1188.16" y="239.5" ></text>
</g>
<g >
<title>[stress-ng] (143,800,109,391 samples, 99.98%)</title><rect x="10.0" y="357" width="1179.7" height="15.0" fill="rgb(241,167,40)" rx="2" ry="2" />
<text  x="13.00" y="367.5" >[stress-ng]</text>
</g>
<g >
<title>srso_alias_safe_ret (51,658,032 samples, 0.04%)</title><rect x="1187.1" y="277" width="0.4" height="15.0" fill="rgb(242,170,40)" rx="2" ry="2" />
<text  x="1190.07" y="287.5" ></text>
</g>
<g >
<title>account_user_time (51,696,035 samples, 0.04%)</title><rect x="1181.5" y="181" width="0.4" height="15.0" fill="rgb(225,96,23)" rx="2" ry="2" />
<text  x="1184.46" y="191.5" ></text>
</g>
<g >
<title>clear_page_erms (58,124,978 samples, 0.04%)</title><rect x="1177.2" y="165" width="0.5" height="15.0" fill="rgb(229,113,27)" rx="2" ry="2" />
<text  x="1180.24" y="175.5" ></text>
</g>
<g >
<title>update_process_times (451,239,068 samples, 0.31%)</title><rect x="1181.5" y="197" width="3.7" height="15.0" fill="rgb(250,209,50)" rx="2" ry="2" />
<text  x="1184.46" y="207.5" ></text>
</g>
<g >
<title>hrtimer_interrupt (52,057,308 samples, 0.04%)</title><rect x="1179.6" y="261" width="0.4" height="15.0" fill="rgb(228,109,26)" rx="2" ry="2" />
<text  x="1182.57" y="271.5" ></text>
</g>
<g >
<title>__folio_throttle_swaprate (23,083,636 samples, 0.02%)</title><rect x="1176.6" y="213" width="0.2" height="15.0" fill="rgb(239,160,38)" rx="2" ry="2" />
<text  x="1179.60" y="223.5" ></text>
</g>
<g >
<title>get_page_from_freelist (122,081,951 samples, 0.08%)</title><rect x="1177.7" y="165" width="1.0" height="15.0" fill="rgb(252,218,52)" rx="2" ry="2" />
<text  x="1180.72" y="175.5" ></text>
</g>
<g >
<title>__handle_mm_fault (385,690,448 samples, 0.27%)</title><rect x="1175.8" y="245" width="3.1" height="15.0" fill="rgb(207,9,2)" rx="2" ry="2" />
<text  x="1178.76" y="255.5" ></text>
</g>
<g >
<title>__mod_lruvec_state (52,239,990 samples, 0.04%)</title><rect x="1189.3" y="37" width="0.4" height="15.0" fill="rgb(226,100,24)" rx="2" ry="2" />
<text  x="1192.28" y="47.5" ></text>
</g>
<g >
<title>unmap_single_vma.isra.0 (154,868,315 samples, 0.11%)</title><rect x="1188.4" y="149" width="1.3" height="15.0" fill="rgb(236,145,34)" rx="2" ry="2" />
<text  x="1191.44" y="159.5" ></text>
</g>
<g >
<title>exc_page_fault (24,432,204 samples, 0.02%)</title><rect x="1188.2" y="309" width="0.2" height="15.0" fill="rgb(212,35,8)" rx="2" ry="2" />
<text  x="1191.24" y="319.5" ></text>
</g>
<g >
<title>handle_mm_fault (385,690,448 samples, 0.27%)</title><rect x="1175.8" y="261" width="3.1" height="15.0" fill="rgb(234,135,32)" rx="2" ry="2" />
<text  x="1178.76" y="271.5" ></text>
</g>
<g >
<title>__x86_indirect_thunk_rax (52,452,392 samples, 0.04%)</title><rect x="1180.4" y="117" width="0.4" height="15.0" fill="rgb(251,213,51)" rx="2" ry="2" />
<text  x="1183.35" y="127.5" ></text>
</g>
<g >
<title>alloc_pages_mpol (180,206,929 samples, 0.13%)</title><rect x="1177.2" y="197" width="1.5" height="15.0" fill="rgb(254,227,54)" rx="2" ry="2" />
<text  x="1180.24" y="207.5" ></text>
</g>
<g >
<title>clockevents_program_event (51,022,229 samples, 0.04%)</title><rect x="1185.6" y="213" width="0.4" height="15.0" fill="rgb(244,182,43)" rx="2" ry="2" />
<text  x="1188.58" y="223.5" ></text>
</g>
<g >
<title>__x64_sys_munmap (154,868,315 samples, 0.11%)</title><rect x="1188.4" y="261" width="1.3" height="15.0" fill="rgb(206,7,1)" rx="2" ry="2" />
<text  x="1191.44" y="271.5" ></text>
</g>
<g >
<title>do_sys_openat2 (31,143,255 samples, 0.02%)</title><rect x="1189.7" y="261" width="0.3" height="15.0" fill="rgb(253,221,52)" rx="2" ry="2" />
<text  x="1192.74" y="271.5" ></text>
</g>
<g >
<title>[stress-ng] (143,800,109,391 samples, 99.98%)</title><rect x="10.0" y="389" width="1179.7" height="15.0" fill="rgb(241,167,40)" rx="2" ry="2" />
<text  x="13.00" y="399.5" >[stress-ng]</text>
</g>
<g >
<title>error_return (60,740,470 samples, 0.04%)</title><rect x="1187.7" y="309" width="0.5" height="15.0" fill="rgb(230,115,27)" rx="2" ry="2" />
<text  x="1190.74" y="319.5" ></text>
</g>
<g >
<title>hv_stimer0_isr (52,177,639 samples, 0.04%)</title><rect x="1186.6" y="277" width="0.5" height="15.0" fill="rgb(220,72,17)" rx="2" ry="2" />
<text  x="1189.64" y="287.5" ></text>
</g>
<g >
<title>__sysvec_hyperv_stimer0 (862,642,019 samples, 0.60%)</title><rect x="1179.6" y="277" width="7.0" height="15.0" fill="rgb(235,139,33)" rx="2" ry="2" />
<text  x="1182.57" y="287.5" ></text>
</g>
<g >
<title>hrtimer_update_next_event (37,233,769 samples, 0.03%)</title><rect x="1186.3" y="245" width="0.3" height="15.0" fill="rgb(225,92,22)" rx="2" ry="2" />
<text  x="1189.34" y="255.5" ></text>
</g>
<g >
<title>mod_find (40,278,536 samples, 0.03%)</title><rect x="1181.1" y="69" width="0.4" height="15.0" fill="rgb(238,156,37)" rx="2" ry="2" />
<text  x="1184.13" y="79.5" ></text>
</g>
<g >
<title>[stress-ng] (31,154,788 samples, 0.02%)</title><rect x="1189.7" y="453" width="0.3" height="15.0" fill="rgb(241,167,40)" rx="2" ry="2" />
<text  x="1192.74" y="463.5" ></text>
</g>
<g >
<title>update_se (44,597,795 samples, 0.03%)</title><rect x="1184.8" y="133" width="0.4" height="15.0" fill="rgb(250,210,50)" rx="2" ry="2" />
<text  x="1187.79" y="143.5" ></text>
</g>
<g >
<title>idle_cpu (50,121,909 samples, 0.03%)</title><rect x="1183.5" y="149" width="0.4" height="15.0" fill="rgb(206,7,1)" rx="2" ry="2" />
<text  x="1186.53" y="159.5" ></text>
</g>
<g >
<title>hrtimer_interrupt (773,350,942 samples, 0.54%)</title><rect x="1180.0" y="245" width="6.3" height="15.0" fill="rgb(228,109,26)" rx="2" ry="2" />
<text  x="1182.99" y="255.5" ></text>
</g>
<g >
<title>do_syscall_64 (154,868,315 samples, 0.11%)</title><rect x="1188.4" y="293" width="1.3" height="15.0" fill="rgb(209,20,4)" rx="2" ry="2" />
<text  x="1191.44" y="303.5" ></text>
</g>
<g >
<title>sysvec_hyperv_stimer0 (1,000,804,237 samples, 0.70%)</title><rect x="1179.3" y="293" width="8.2" height="15.0" fill="rgb(212,35,8)" rx="2" ry="2" />
<text  x="1182.28" y="303.5" ></text>
</g>
<g >
<title>__rmqueue_pcplist (60,290,217 samples, 0.04%)</title><rect x="1178.2" y="149" width="0.5" height="15.0" fill="rgb(230,118,28)" rx="2" ry="2" />
<text  x="1181.22" y="159.5" ></text>
</g>
<g >
<title>__x64_sys_openat (31,143,255 samples, 0.02%)</title><rect x="1189.7" y="277" width="0.3" height="15.0" fill="rgb(251,215,51)" rx="2" ry="2" />
<text  x="1192.74" y="287.5" ></text>
</g>
<g >
<title>ktime_get (40,785,561 samples, 0.03%)</title><rect x="1186.0" y="213" width="0.3" height="15.0" fill="rgb(207,10,2)" rx="2" ry="2" />
<text  x="1189.00" y="223.5" ></text>
</g>
<g >
<title>folio_add_new_anon_rmap (23,354,729 samples, 0.02%)</title><rect x="1177.0" y="213" width="0.2" height="15.0" fill="rgb(233,133,31)" rx="2" ry="2" />
<text  x="1180.05" y="223.5" ></text>
</g>
<g >
<title>native_write_msr (51,022,229 samples, 0.04%)</title><rect x="1185.6" y="181" width="0.4" height="15.0" fill="rgb(237,151,36)" rx="2" ry="2" />
<text  x="1188.58" y="191.5" ></text>
</g>
<g >
<title>update_curr (96,807,780 samples, 0.07%)</title><rect x="1184.4" y="149" width="0.8" height="15.0" fill="rgb(227,105,25)" rx="2" ry="2" />
<text  x="1187.37" y="159.5" ></text>
</g>
<g >
<title>do_anonymous_page (354,658,794 samples, 0.25%)</title><rect x="1176.0" y="229" width="2.9" height="15.0" fill="rgb(238,155,37)" rx="2" ry="2" />
<text  x="1179.01" y="239.5" ></text>
</g>
<g >
<title>x64_sys_call (31,143,255 samples, 0.02%)</title><rect x="1189.7" y="293" width="0.3" height="15.0" fill="rgb(247,194,46)" rx="2" ry="2" />
<text  x="1192.74" y="303.5" ></text>
</g>
</g>
</svg>
